<?xml version="1.0" encoding="UTF-8" standalone="no"?>
<!DOCTYPE svg PUBLIC "-//W3C//DTD SVG 1.1//EN"
 "http://www.w3.org/Graphics/SVG/1.1/DTD/svg11.dtd">
<!-- Generated by graphviz version 2.38.0 (20140413.2041)
 -->
<!-- Title: main Pages: 1 -->
<svg width="1284pt" height="1081pt"
 viewBox="0.00 0.00 1284.27 1081.33" xmlns="http://www.w3.org/2000/svg" xmlns:xlink="http://www.w3.org/1999/xlink">
<g id="graph0" class="graph" transform="scale(1 1) rotate(0) translate(4 1077.33)">
<title>main</title>
<polygon fill="white" stroke="none" points="-4,4 -4,-1077.33 1280.27,-1077.33 1280.27,4 -4,4"/>
<!-- 1 -->
<g id="node1" class="node"><title>1</title>
<ellipse fill="none" stroke="black" cx="234.266" cy="-1052.12" rx="21.4286" ry="21.4286"/>
<text text-anchor="middle" x="234.266" y="-1055.12" font-family="Times,serif" font-size="10.00">N1</text>
<text text-anchor="middle" x="234.266" y="-1044.12" font-family="Times,serif" font-size="10.00">20</text>
</g>
<!-- 45 -->
<g id="node2" class="node"><title>45</title>
<ellipse fill="none" stroke="black" cx="234.266" cy="-959.155" rx="25" ry="25"/>
<text text-anchor="middle" x="234.266" y="-962.155" font-family="Times,serif" font-size="10.00">N45</text>
<text text-anchor="middle" x="234.266" y="-951.155" font-family="Times,serif" font-size="10.00">19</text>
</g>
<!-- 1&#45;&gt;45 -->
<g id="edge1" class="edge"><title>1&#45;&gt;45</title>
<path fill="none" stroke="black" d="M234.266,-1030.48C234.266,-1019.77 234.266,-1006.42 234.266,-994.239"/>
<polygon fill="black" stroke="black" points="237.766,-993.928 234.266,-983.928 230.766,-993.928 237.766,-993.928"/>
<text text-anchor="middle" x="282.766" y="-1004.9" font-family="Courier New" font-size="10.00">INIT GLOBAL VARS</text>
</g>
<!-- 11 -->
<g id="node3" class="node"><title>11</title>
<ellipse fill="none" stroke="black" cx="234.266" cy="-858.657" rx="24.9647" ry="24.9647"/>
<ellipse fill="none" stroke="black" cx="234.266" cy="-858.657" rx="28.9996" ry="28.9996"/>
<text text-anchor="middle" x="234.266" y="-861.657" font-family="Times,serif" font-size="10.00">N11</text>
<text text-anchor="middle" x="234.266" y="-850.657" font-family="Times,serif" font-size="10.00">18</text>
</g>
<!-- 45&#45;&gt;11 -->
<g id="edge18" class="edge"><title>45&#45;&gt;11</title>
<path fill="none" stroke="black" d="M234.266,-934.311C234.266,-923.28 234.266,-909.908 234.266,-897.545"/>
<polygon fill="black" stroke="black" points="237.766,-897.471 234.266,-887.472 230.766,-897.472 237.766,-897.471"/>
<text text-anchor="middle" x="744.766" y="-908.406" font-family="Courier New" font-size="10.00">int __VERIFIER_nondet_int(); int main(); Function start dummy edge const n = 3; int array[n]; int ii = 0; int tmp = 0; int i = 0; int j = 0; int maxIndex = 0; for ii = 0;</text>
</g>
<!-- 13 -->
<g id="node4" class="node"><title>13</title>
<ellipse fill="none" stroke="black" cx="44.2657" cy="-758.16" rx="25" ry="25"/>
<text text-anchor="middle" x="44.2657" y="-761.16" font-family="Times,serif" font-size="10.00">N13</text>
<text text-anchor="middle" x="44.2657" y="-750.16" font-family="Times,serif" font-size="10.00">1</text>
</g>
<!-- 11&#45;&gt;13 -->
<g id="edge2" class="edge"><title>11&#45;&gt;13</title>
<path fill="none" stroke="black" d="M209.035,-844.578C174.417,-826.632 112.253,-794.405 74.9737,-775.079"/>
<polygon fill="black" stroke="black" points="76.5528,-771.956 66.064,-770.46 73.3311,-778.17 76.5528,-771.956"/>
<text text-anchor="middle" x="169.766" y="-803.909" font-family="Courier New" font-size="10.00">[ii &lt; n]</text>
</g>
<!-- 14 -->
<g id="node5" class="node"><title>14</title>
<ellipse fill="none" stroke="black" cx="356.266" cy="-758.16" rx="25" ry="25"/>
<text text-anchor="middle" x="356.266" y="-761.16" font-family="Times,serif" font-size="10.00">N14</text>
<text text-anchor="middle" x="356.266" y="-750.16" font-family="Times,serif" font-size="10.00">17</text>
</g>
<!-- 11&#45;&gt;14 -->
<g id="edge3" class="edge"><title>11&#45;&gt;14</title>
<path fill="none" stroke="black" d="M256.359,-839.82C276.817,-823.303 307.296,-798.696 329.206,-781.007"/>
<polygon fill="black" stroke="black" points="331.562,-783.603 337.145,-774.598 327.165,-778.156 331.562,-783.603"/>
<text text-anchor="middle" x="336.766" y="-803.909" font-family="Courier New" font-size="10.00">[!(ii &lt; n)]</text>
</g>
<!-- 15 -->
<g id="node20" class="node"><title>15</title>
<ellipse fill="none" stroke="black" cx="118.266" cy="-657.663" rx="25" ry="25"/>
<text text-anchor="middle" x="118.266" y="-660.663" font-family="Times,serif" font-size="10.00">N15</text>
<text text-anchor="middle" x="118.266" y="-649.663" font-family="Times,serif" font-size="10.00">0</text>
</g>
<!-- 13&#45;&gt;15 -->
<g id="edge17" class="edge"><title>13&#45;&gt;15</title>
<path fill="none" stroke="black" d="M23.3856,-744.502C8.83766,-734.027 -6.37152,-718.617 3.26572,-704.411 21.0502,-678.196 56.4913,-667.003 83.3538,-662.223"/>
<polygon fill="black" stroke="black" points="84.1934,-665.635 93.5364,-660.639 83.1171,-658.718 84.1934,-665.635"/>
<text text-anchor="middle" x="111.766" y="-707.411" font-family="Courier New" font-size="10.00">array[ii] = __VERIFIER_nondet_int();</text>
</g>
<!-- 17 -->
<g id="node6" class="node"><title>17</title>
<ellipse fill="none" stroke="black" cx="356.266" cy="-657.663" rx="24.9647" ry="24.9647"/>
<ellipse fill="none" stroke="black" cx="356.266" cy="-657.663" rx="28.9996" ry="28.9996"/>
<text text-anchor="middle" x="356.266" y="-660.663" font-family="Times,serif" font-size="10.00">N17</text>
<text text-anchor="middle" x="356.266" y="-649.663" font-family="Times,serif" font-size="10.00">16</text>
</g>
<!-- 14&#45;&gt;17 -->
<g id="edge19" class="edge"><title>14&#45;&gt;17</title>
<path fill="none" stroke="black" d="M356.266,-733.317C356.266,-722.285 356.266,-708.913 356.266,-696.55"/>
<polygon fill="black" stroke="black" points="359.766,-696.477 356.266,-686.477 352.766,-696.477 359.766,-696.477"/>
<text text-anchor="middle" x="386.766" y="-707.411" font-family="Courier New" font-size="10.00">for i = 0;</text>
</g>
<!-- 19 -->
<g id="node7" class="node"><title>19</title>
<ellipse fill="none" stroke="black" cx="189.266" cy="-557.165" rx="25" ry="25"/>
<text text-anchor="middle" x="189.266" y="-560.165" font-family="Times,serif" font-size="10.00">N19</text>
<text text-anchor="middle" x="189.266" y="-549.165" font-family="Times,serif" font-size="10.00">7</text>
</g>
<!-- 17&#45;&gt;19 -->
<g id="edge4" class="edge"><title>17&#45;&gt;19</title>
<path fill="none" stroke="black" d="M330.013,-645.134C311.05,-636.477 285.05,-623.919 263.266,-610.914 247.224,-601.336 230.188,-589.332 216.511,-579.196"/>
<polygon fill="black" stroke="black" points="218.569,-576.364 208.469,-573.165 214.369,-581.964 218.569,-576.364"/>
<text text-anchor="middle" x="302.766" y="-602.914" font-family="Courier New" font-size="10.00">[i &lt; (n &#45; 2)]</text>
</g>
<!-- 20 -->
<g id="node8" class="node"><title>20</title>
<ellipse fill="none" stroke="black" cx="625.266" cy="-557.165" rx="25" ry="25"/>
<text text-anchor="middle" x="625.266" y="-560.165" font-family="Times,serif" font-size="10.00">N20</text>
<text text-anchor="middle" x="625.266" y="-549.165" font-family="Times,serif" font-size="10.00">15</text>
</g>
<!-- 17&#45;&gt;20 -->
<g id="edge5" class="edge"><title>17&#45;&gt;20</title>
<path fill="none" stroke="black" d="M383.042,-646.858C432.709,-628.672 538.932,-589.777 592.68,-570.097"/>
<polygon fill="black" stroke="black" points="593.893,-573.38 602.08,-566.655 591.486,-566.807 593.893,-573.38"/>
<text text-anchor="middle" x="555.766" y="-602.914" font-family="Courier New" font-size="10.00">[!(i &lt; (n &#45; 2))]</text>
</g>
<!-- 23 -->
<g id="node15" class="node"><title>23</title>
<ellipse fill="none" stroke="black" cx="179.266" cy="-456.668" rx="24.9647" ry="24.9647"/>
<ellipse fill="none" stroke="black" cx="179.266" cy="-456.668" rx="28.9996" ry="28.9996"/>
<text text-anchor="middle" x="179.266" y="-459.668" font-family="Times,serif" font-size="10.00">N23</text>
<text text-anchor="middle" x="179.266" y="-448.668" font-family="Times,serif" font-size="10.00">6</text>
</g>
<!-- 19&#45;&gt;23 -->
<g id="edge11" class="edge"><title>19&#45;&gt;23</title>
<path fill="none" stroke="black" d="M175.285,-536.713C171.228,-529.98 167.336,-522.171 165.266,-514.416 163.437,-507.566 163.649,-500.227 164.925,-493.177"/>
<polygon fill="black" stroke="black" points="168.403,-493.696 167.441,-483.145 161.614,-491.993 168.403,-493.696"/>
<text text-anchor="middle" x="249.766" y="-506.416" font-family="Courier New" font-size="10.00">maxIndex = i; for j = i + 1;</text>
</g>
<!-- 34 -->
<g id="node9" class="node"><title>34</title>
<ellipse fill="none" stroke="black" cx="842.266" cy="-456.668" rx="24.9647" ry="24.9647"/>
<ellipse fill="none" stroke="black" cx="842.266" cy="-456.668" rx="28.9996" ry="28.9996"/>
<text text-anchor="middle" x="842.266" y="-459.668" font-family="Times,serif" font-size="10.00">N34</text>
<text text-anchor="middle" x="842.266" y="-448.668" font-family="Times,serif" font-size="10.00">14</text>
</g>
<!-- 20&#45;&gt;34 -->
<g id="edge20" class="edge"><title>20&#45;&gt;34</title>
<path fill="none" stroke="black" d="M649.901,-553.801C696.411,-548.879 794.775,-536.147 820.266,-514.416 826.372,-509.211 830.792,-502.1 833.988,-494.673"/>
<polygon fill="black" stroke="black" points="837.299,-495.809 837.416,-485.215 830.718,-493.423 837.299,-495.809"/>
<text text-anchor="middle" x="863.766" y="-506.416" font-family="Courier New" font-size="10.00">for ii = 0;</text>
</g>
<!-- 36 -->
<g id="node10" class="node"><title>36</title>
<polygon fill="none" stroke="black" points="974.266,-380.919 939.266,-350.919 974.266,-320.919 1009.27,-350.919 974.266,-380.919"/>
<text text-anchor="middle" x="974.266" y="-353.919" font-family="Times,serif" font-size="10.00">N36</text>
<text text-anchor="middle" x="974.266" y="-342.919" font-family="Times,serif" font-size="10.00">12</text>
</g>
<!-- 34&#45;&gt;36 -->
<g id="edge6" class="edge"><title>34&#45;&gt;36</title>
<path fill="none" stroke="black" d="M864.658,-438.068C887.818,-419.864 923.947,-391.468 948.334,-372.301"/>
<polygon fill="black" stroke="black" points="950.73,-374.869 956.429,-365.938 946.404,-369.366 950.73,-374.869"/>
<text text-anchor="middle" x="953.766" y="-401.919" font-family="Courier New" font-size="10.00">[ii &lt; (n &#45; 1)]</text>
</g>
<!-- 37 -->
<g id="node11" class="node"><title>37</title>
<ellipse fill="none" stroke="black" cx="742.266" cy="-278.17" rx="25" ry="25"/>
<text text-anchor="middle" x="742.266" y="-281.17" font-family="Times,serif" font-size="10.00">N37</text>
<text text-anchor="middle" x="742.266" y="-270.17" font-family="Times,serif" font-size="10.00">13</text>
</g>
<!-- 34&#45;&gt;37 -->
<g id="edge7" class="edge"><title>34&#45;&gt;37</title>
<path fill="none" stroke="black" d="M813.547,-453.351C785.726,-449.405 744.942,-438.739 725.266,-409.919 705.177,-380.494 715.8,-338.516 727.216,-310.128"/>
<polygon fill="black" stroke="black" points="730.535,-311.267 731.238,-300.696 724.096,-308.522 730.535,-311.267"/>
<text text-anchor="middle" x="776.766" y="-401.919" font-family="Courier New" font-size="10.00">[!(ii &lt; (n &#45; 1))]</text>
</g>
<!-- 39 -->
<g id="node12" class="node"><title>39</title>
<ellipse fill="none" stroke="black" cx="1009.27" cy="-210.673" rx="25" ry="25"/>
<text text-anchor="middle" x="1009.27" y="-213.673" font-family="Times,serif" font-size="10.00">N39</text>
<text text-anchor="middle" x="1009.27" y="-202.673" font-family="Times,serif" font-size="10.00">10</text>
</g>
<!-- 36&#45;&gt;39 -->
<g id="edge8" class="edge"><title>36&#45;&gt;39</title>
<path fill="none" stroke="black" d="M1003.55,-345.941C1028.93,-340.775 1064.18,-329.081 1081.27,-302.919 1093.29,-284.499 1092.25,-272.483 1081.27,-253.421 1072.8,-238.735 1056.98,-228.741 1042.32,-222.224"/>
<polygon fill="black" stroke="black" points="1043.52,-218.936 1032.94,-218.429 1040.89,-225.425 1043.52,-218.936"/>
<text text-anchor="middle" x="1182.77" y="-275.67" font-family="Courier New" font-size="10.00">[(array[ii]) &lt; (array[ii + 1])]</text>
</g>
<!-- 38 -->
<g id="node13" class="node"><title>38</title>
<ellipse fill="none" stroke="black" cx="848.266" cy="-210.673" rx="25" ry="25"/>
<text text-anchor="middle" x="848.266" y="-213.673" font-family="Times,serif" font-size="10.00">N38</text>
<text text-anchor="middle" x="848.266" y="-202.673" font-family="Times,serif" font-size="10.00">11</text>
</g>
<!-- 36&#45;&gt;38 -->
<g id="edge9" class="edge"><title>36&#45;&gt;38</title>
<path fill="none" stroke="black" d="M954.744,-337.104C945.961,-331.672 935.325,-325.543 925.266,-320.919 902.663,-310.528 889.228,-321.116 872.266,-302.919 864.372,-294.451 857.878,-267.515 853.645,-245.088"/>
<polygon fill="black" stroke="black" points="857.079,-244.405 851.863,-235.183 850.189,-245.645 857.079,-244.405"/>
<text text-anchor="middle" x="974.766" y="-275.67" font-family="Courier New" font-size="10.00">[!((array[ii]) &lt; (array[ii + 1]))]</text>
</g>
<!-- 0 -->
<g id="node21" class="node"><title>0</title>
<ellipse fill="none" stroke="black" cx="811.266" cy="-21.2132" rx="21.4286" ry="21.4286"/>
<text text-anchor="middle" x="811.266" y="-24.2132" font-family="Times,serif" font-size="10.00">N0</text>
<text text-anchor="middle" x="811.266" y="-13.2132" font-family="Times,serif" font-size="10.00">8</text>
</g>
<!-- 37&#45;&gt;0 -->
<g id="edge21" class="edge"><title>37&#45;&gt;0</title>
<path fill="none" stroke="black" d="M748.511,-254.095C761.08,-207.65 789.414,-102.957 803.296,-51.6625"/>
<polygon fill="black" stroke="black" points="806.715,-52.4248 805.949,-41.8577 799.958,-50.5961 806.715,-52.4248"/>
<text text-anchor="middle" x="802.766" y="-159.924" font-family="Courier New" font-size="10.00">return 0;</text>
</g>
<!-- 42 -->
<g id="node14" class="node"><title>42</title>
<ellipse fill="none" stroke="black" cx="881.266" cy="-114.175" rx="25" ry="25"/>
<text text-anchor="middle" x="881.266" y="-117.175" font-family="Times,serif" font-size="10.00">N42</text>
<text text-anchor="middle" x="881.266" y="-106.175" font-family="Times,serif" font-size="10.00">9</text>
</g>
<!-- 39&#45;&gt;42 -->
<g id="edge10" class="edge"><title>39&#45;&gt;42</title>
<path fill="none" stroke="black" d="M989.825,-195.32C968.304,-179.432 933.439,-153.692 909.043,-135.682"/>
<polygon fill="black" stroke="black" points="911.013,-132.786 900.889,-129.662 906.855,-138.418 911.013,-132.786"/>
<text text-anchor="middle" x="981.766" y="-159.924" font-family="Courier New" font-size="10.00">Goto: ERROR</text>
</g>
<!-- 38&#45;&gt;34 -->
<g id="edge22" class="edge"><title>38&#45;&gt;34</title>
<path fill="none" stroke="black" d="M847.675,-235.701C846.632,-278.108 844.457,-366.547 843.206,-417.422"/>
<polygon fill="black" stroke="black" points="839.701,-417.595 842.954,-427.678 846.699,-417.767 839.701,-417.595"/>
<text text-anchor="middle" x="884.766" y="-348.419" font-family="Courier New" font-size="10.00"> ii = ii + 1;</text>
</g>
<!-- 42&#45;&gt;0 -->
<g id="edge23" class="edge"><title>42&#45;&gt;0</title>
<path fill="none" stroke="black" d="M866.421,-93.8845C855.819,-80.1086 841.476,-61.4697 830.073,-46.6528"/>
<polygon fill="black" stroke="black" points="832.623,-44.2265 823.75,-38.436 827.075,-48.4956 832.623,-44.2265"/>
<text text-anchor="middle" x="917.766" y="-63.4264" font-family="Courier New" font-size="10.00">Label: ERROR return &#45;1;</text>
</g>
<!-- 25 -->
<g id="node16" class="node"><title>25</title>
<polygon fill="none" stroke="black" points="243.266,-380.919 208.266,-350.919 243.266,-320.919 278.266,-350.919 243.266,-380.919"/>
<text text-anchor="middle" x="243.266" y="-353.919" font-family="Times,serif" font-size="10.00">N25</text>
<text text-anchor="middle" x="243.266" y="-342.919" font-family="Times,serif" font-size="10.00">4</text>
</g>
<!-- 23&#45;&gt;25 -->
<g id="edge12" class="edge"><title>23&#45;&gt;25</title>
<path fill="none" stroke="black" d="M192.525,-431.103C198.121,-421.019 204.823,-409.297 211.266,-398.919 215.418,-392.231 220.089,-385.148 224.552,-378.566"/>
<polygon fill="black" stroke="black" points="227.668,-380.211 230.441,-369.985 221.897,-376.25 227.668,-380.211"/>
<text text-anchor="middle" x="232.766" y="-401.919" font-family="Courier New" font-size="10.00">[j &lt; n]</text>
</g>
<!-- 26 -->
<g id="node17" class="node"><title>26</title>
<ellipse fill="none" stroke="black" cx="333.266" cy="-350.919" rx="25" ry="25"/>
<text text-anchor="middle" x="333.266" y="-353.919" font-family="Times,serif" font-size="10.00">N26</text>
<text text-anchor="middle" x="333.266" y="-342.919" font-family="Times,serif" font-size="10.00">5</text>
</g>
<!-- 23&#45;&gt;26 -->
<g id="edge13" class="edge"><title>23&#45;&gt;26</title>
<path fill="none" stroke="black" d="M203.917,-441.352C218.713,-432.584 237.796,-420.959 254.266,-409.919 271.751,-398.198 290.787,-384.26 305.791,-372.985"/>
<polygon fill="black" stroke="black" points="308.25,-375.513 314.117,-366.691 304.029,-369.929 308.25,-375.513"/>
<text text-anchor="middle" x="300.766" y="-401.919" font-family="Courier New" font-size="10.00">[!(j &lt; n)]</text>
</g>
<!-- 28 -->
<g id="node18" class="node"><title>28</title>
<ellipse fill="none" stroke="black" cx="243.266" cy="-210.673" rx="25" ry="25"/>
<text text-anchor="middle" x="243.266" y="-213.673" font-family="Times,serif" font-size="10.00">N28</text>
<text text-anchor="middle" x="243.266" y="-202.673" font-family="Times,serif" font-size="10.00">3</text>
</g>
<!-- 25&#45;&gt;28 -->
<g id="edge14" class="edge"><title>25&#45;&gt;28</title>
<path fill="none" stroke="black" d="M243.266,-320.6C243.266,-298.606 243.266,-268.455 243.266,-245.45"/>
<polygon fill="black" stroke="black" points="246.766,-245.438 243.266,-235.438 239.766,-245.438 246.766,-245.438"/>
<text text-anchor="middle" x="339.766" y="-275.67" font-family="Courier New" font-size="10.00">[(array[j]) &gt; (array[maxIndex])]</text>
</g>
<!-- 27 -->
<g id="node19" class="node"><title>27</title>
<ellipse fill="none" stroke="black" cx="243.266" cy="-114.175" rx="25" ry="25"/>
<text text-anchor="middle" x="243.266" y="-117.175" font-family="Times,serif" font-size="10.00">N27</text>
<text text-anchor="middle" x="243.266" y="-106.175" font-family="Times,serif" font-size="10.00">2</text>
</g>
<!-- 25&#45;&gt;27 -->
<g id="edge15" class="edge"><title>25&#45;&gt;27</title>
<path fill="none" stroke="black" d="M263.014,-337.536C273.423,-331.577 286.625,-324.881 299.266,-320.919 328.776,-311.668 416.861,-326.158 437.266,-302.919 499.29,-232.279 345.047,-157.087 275.34,-127.835"/>
<polygon fill="black" stroke="black" points="276.675,-124.6 266.096,-124.018 274.003,-131.07 276.675,-124.6"/>
<text text-anchor="middle" x="545.766" y="-208.173" font-family="Courier New" font-size="10.00">[!((array[j]) &gt; (array[maxIndex]))]</text>
</g>
<!-- 26&#45;&gt;17 -->
<g id="edge24" class="edge"><title>26&#45;&gt;17</title>
<path fill="none" stroke="black" d="M335.065,-375.758C339.041,-428.437 348.602,-555.116 353.407,-618.787"/>
<polygon fill="black" stroke="black" points="349.921,-619.102 354.164,-628.811 356.901,-618.576 349.921,-619.102"/>
<text text-anchor="middle" x="577.766" y="-506.416" font-family="Courier New" font-size="10.00">tmp = array[i]; array[i] = array[maxIndex]; array[maxIndex] = tmp; i = i + 1;</text>
</g>
<!-- 28&#45;&gt;27 -->
<g id="edge25" class="edge"><title>28&#45;&gt;27</title>
<path fill="none" stroke="black" d="M243.266,-185.827C243.266,-174.747 243.266,-161.371 243.266,-149.251"/>
<polygon fill="black" stroke="black" points="246.766,-149.013 243.266,-139.013 239.766,-149.013 246.766,-149.013"/>
<text text-anchor="middle" x="285.766" y="-159.924" font-family="Courier New" font-size="10.00">maxIndex = j; </text>
</g>
<!-- 27&#45;&gt;23 -->
<g id="edge16" class="edge"><title>27&#45;&gt;23</title>
<path fill="none" stroke="black" d="M229.174,-135.041C211.803,-160.867 183.235,-208.051 172.266,-253.421 158.67,-309.654 165.461,-377.223 172.037,-418.28"/>
<polygon fill="black" stroke="black" points="168.624,-419.093 173.736,-428.374 175.527,-417.931 168.624,-419.093"/>
<text text-anchor="middle" x="205.766" y="-275.67" font-family="Courier New" font-size="10.00"> j = j + 1;</text>
</g>
<!-- 15&#45;&gt;11 -->
<g id="edge26" class="edge"><title>15&#45;&gt;11</title>
<path fill="none" stroke="black" d="M142.926,-662.477C166.887,-667.588 202.219,-679.141 220.266,-704.411 244.152,-737.86 244.385,-786.453 240.767,-819.907"/>
<polygon fill="black" stroke="black" points="237.248,-819.842 239.482,-830.199 244.194,-820.709 237.248,-819.842"/>
<text text-anchor="middle" x="282.766" y="-755.66" font-family="Courier New" font-size="10.00"> ii = ii + 1;</text>
</g>
</g>
</svg>
